<?xml version="1.0" encoding="UTF-8"?>
<!DOCTYPE svg PUBLIC "-//W3C//DTD SVG 1.1//EN" "http://www.w3.org/Graphics/SVG/1.1/DTD/svg11.dtd">
<!-- Creator: CorelDRAW 2020 (64-Bit) -->
<?xml-stylesheet href="RosarySVG.css" type="text/css"?>
<svg xmlns="http://www.w3.org/2000/svg" xml:space="preserve" width="21.0044mm" height="108.31mm" version="1.1" style="shape-rendering:geometricPrecision; text-rendering:geometricPrecision; image-rendering:optimizeQuality; fill-rule:evenodd; clip-rule:evenodd"
viewBox="0 0 613.32 3162.63"
 xmlns:xlink="http://www.w3.org/1999/xlink"
 xmlns:xodm="http://www.corel.com/coreldraw/odm/2003">
 <g id="Layer_x0020_1">
  <metadata id="CorelCorpID_0Corel-Layer"/>
  <g id="_2481016947984">
   <path class="fil0 str0" d="M457.41 2760.89c0,-66.44 -1.54,-436.12 -1.54,-553.17 45.2,0 97.99,3.97 105.07,-86.53 23.18,-296.37 -54.03,-373.45 -40.39,-418.42 46.93,-154.72 41.17,-464.64 41.17,-464.64 15.45,-54.08 -21.97,-153.96 4.14,-375.27 17.83,-151.15 -122.03,-356.54 -47.65,-480.89 32.1,-53.65 -2.67,-118.35 -12.9,-130.42 -208.24,-245.61 -353.05,-226.37 -450.4,-218.64 -13.9,20.08 -23.18,61.81 -23.18,74.17 -6.95,64.9 226.48,-71.5 329.12,121.29l-0.5 1001.94 -2.32 638.38c-0.4,111.79 1.3,191.58 1.3,245.07 0,44 17.19,94.21 96.81,94.21"/>
   <polygon class="fil1" points="435.42,2750.08 481.78,2750.08 481.78,2843.56 594.9,2843.56 594.9,2889.91 481.78,2889.91 481.78,3162.63 435.42,3162.63 435.42,2889.91 322.3,2889.91 322.3,2843.56 435.42,2843.56 "/>
   <circle class="fil2" cx="562.13" cy="1237.29" r="51.2"/>
   <circle class="fil2" cx="358.16" cy="1237.29" r="51.2"/>
   <circle class="fil2" cx="562.13" cy="1108.87" r="33.68"/>
   <circle class="fil2" cx="537.4" cy="1790.18" r="33.68"/>
   <circle class="fil2" cx="518.86" cy="1705.55" r="33.68"/>
   <circle class="fil2" cx="531.22" cy="1616.28" r="33.68"/>
   <circle class="fil2" cx="562.13" cy="1531.66" r="33.68"/>
   <circle class="fil2" cx="554.4" cy="1868.62" r="33.68"/>
   <circle class="fil2" cx="562.13" cy="1448.58" r="33.68"/>
   <circle class="fil2" cx="562.13" cy="1365.5" r="33.68"/>
   <circle class="fil2" cx="562.13" cy="1947.06" r="33.68"/>
   <circle class="fil2" cx="562.13" cy="2030.14" r="33.68"/>
   <circle class="fil2" cx="562.13" cy="2113.22" r="33.68"/>
   <circle class="fil2" cx="358.16" cy="1108.87" r="33.68"/>
   <circle class="fil2" cx="358.16" cy="1780.9" r="33.68"/>
   <circle class="fil2" cx="358.16" cy="1697.82" r="33.68"/>
   <circle class="fil2" cx="358.16" cy="1614.74" r="33.68"/>
   <circle class="fil2" cx="358.16" cy="1531.66" r="33.68"/>
   <circle class="fil2" cx="358.16" cy="1863.98" r="33.68"/>
   <circle class="fil2" cx="358.16" cy="1448.58" r="33.68"/>
   <circle class="fil2" cx="358.16" cy="1365.5" r="33.68"/>
   <circle class="fil2" cx="358.16" cy="1947.06" r="33.68"/>
   <circle class="fil2" cx="358.16" cy="2030.14" r="33.68"/>
   <circle class="fil2" cx="358.16" cy="2113.22" r="33.68"/>
   <circle class="fil2" cx="458.6" cy="2207.64" r="51.2"/>
   <circle class="fil2" cx="458.6" cy="2668.18" r="33.68"/>
   <circle class="fil2" cx="458.6" cy="2585.1" r="33.68"/>
   <circle class="fil2" cx="458.6" cy="2502.02" r="33.68"/>
   <circle class="fil2" cx="458.6" cy="2418.94" r="33.68"/>
   <circle class="fil2" cx="458.6" cy="2335.86" r="33.68"/>
   <circle class="fil2" cx="562.13" cy="776.55" r="33.68"/>
   <circle class="fil2" cx="545.13" cy="704.28" r="33.68"/>
   <circle class="fil2" cx="523.5" cy="632.02" r="33.68"/>
   <circle class="fil2" cx="498.77" cy="548.94" r="33.68"/>
   <circle class="fil2" cx="562.13" cy="859.63" r="33.68"/>
   <circle class="fil2" cx="562.13" cy="942.71" r="33.68"/>
   <circle class="fil2" cx="562.13" cy="1025.79" r="33.68"/>
   <circle class="fil2" cx="358.16" cy="776.55" r="33.68"/>
   <circle class="fil2" cx="358.16" cy="693.47" r="33.68"/>
   <circle class="fil2" cx="358.16" cy="610.39" r="33.68"/>
   <circle class="fil2" cx="358.16" cy="527.31" r="33.68"/>
   <circle class="fil2" cx="358.16" cy="859.63" r="33.68"/>
   <circle class="fil2" cx="358.16" cy="942.71" r="33.68"/>
   <circle class="fil2" cx="358.16" cy="1025.79" r="33.68"/>
   <circle class="fil2" cx="501.87" cy="262.1" r="51.2"/>
   <circle class="fil2" cx="33.68" cy="37.19" r="33.68"/>
   <circle class="fil2" cx="117.89" cy="33.68" r="33.68"/>
   <circle class="fil2" cx="202.1" cy="37.91" r="33.68"/>
   <circle class="fil2" cx="280.13" cy="62.98" r="33.68"/>
   <circle class="fil2" cx="38.32" cy="108.68" r="33.68"/>
   <circle class="fil2" cx="353.53" cy="105.06" r="33.68"/>
   <circle class="fil2" cx="422.29" cy="157.19" r="33.68"/>
   <circle class="fil2" cx="123.3" cy="112.96" r="33.68"/>
   <circle class="fil2" cx="209.06" cy="122.65" r="33.68"/>
   <circle class="fil2" cx="285.54" cy="153.19" r="33.68"/>
   <circle class="fil2" cx="358.17" cy="232.93" r="51.2"/>
   <circle class="fil2" cx="486.41" cy="467.4" r="33.68"/>
   <circle class="fil2" cx="517.31" cy="385.87" r="33.68"/>
   <circle class="fil2" cx="358.16" cy="444.23" r="33.68"/>
   <circle class="fil2" cx="358.16" cy="361.15" r="33.68"/>
  </g>
 </g>
</svg>
